<svg xmlns="http://www.w3.org/2000/svg" viewBox="0 0 1200 460" role="img" aria-labelledby="title desc"><title id="title">Ruirui Wan — AI, design, games, and open source</title><desc id="desc">A black editorial portfolio card with an RW monogram and project disciplines.</desc><rect width="1200" height="460" rx="24" fill="#111214"/><path d="M0 0H14V460H0Z" fill="#E1B84B"/><g font-family="ui-sans-serif,system-ui,-apple-system,Segoe UI,sans-serif"><text x="62" y="62" font-size="13" letter-spacing="4" fill="#AFAFAF">PERSONAL PORTFOLIO · STATIC SITE</text><text x="59" y="147" font-size="62" font-weight="800" fill="#F5F4F0">Ruirui Wan</text><text x="62" y="193" font-size="23" fill="#D0D0CE">AI technologist · designer · game maker</text><text x="62" y="234" font-size="16" fill="#858585">Building interactive systems and AI-native workflows.</text></g>
<g transform="translate(62 296)" font-family="ui-sans-serif,system-ui" font-size="13"><rect width="150" height="45" rx="5" fill="#1D1F22" stroke="#444"/><text x="37" y="28" fill="#E0C169">AI &amp; TOOLING</text><rect x="164" width="150" height="45" rx="5" fill="#1D1F22" stroke="#444"/><text x="207" y="28" fill="#E6E6E4">GAME DEV</text><rect x="328" width="150" height="45" rx="5" fill="#1D1F22" stroke="#444"/><text x="364" y="28" fill="#E6E6E4">CREATIVE 3D</text><rect x="492" width="150" height="45" rx="5" fill="#1D1F22" stroke="#444"/><text x="525" y="28" fill="#E6E6E4">OPEN SOURCE</text></g>
<g transform="translate(805 52)"><rect width="315" height="356" rx="12" fill="#191B1F" stroke="#35373C"/><path d="M28 28H287M28 328H287" stroke="#383A3F"/><text x="32" y="60" font-family="ui-sans-serif,system-ui" font-size="11" letter-spacing="3" fill="#8A8A89">SELECTED PROFILE</text><text x="29" y="205" font-family="Georgia,serif" font-size="116" font-weight="700" fill="#E1B84B">RW</text><text x="31" y="257" font-family="ui-sans-serif,system-ui" font-size="15" fill="#DADAD7">Python · C# · C++</text><text x="31" y="284" font-family="ui-sans-serif,system-ui" font-size="15" fill="#9E9E9B">Unity · Unreal · Blender</text><circle cx="272" cy="304" r="8" fill="#E1B84B"/></g><text x="62" y="416" font-family="ui-sans-serif,system-ui" font-size="13" fill="#777">About · Resume · Portfolio · Highlights · Contact</text></svg>
